<?xml version="1.0" encoding="UTF-8" standalone="no"?>
<!DOCTYPE svg PUBLIC "-//W3C//DTD SVG 1.1//EN"
 "http://www.w3.org/Graphics/SVG/1.1/DTD/svg11.dtd">
<!-- Generated by graphviz version 14.1.4 (20260321.0153)
 -->
<!-- Pages: 1 -->
<svg width="146pt" height="116pt"
 viewBox="0.00 0.00 146.00 116.00" xmlns="http://www.w3.org/2000/svg" xmlns:xlink="http://www.w3.org/1999/xlink">
<g id="graph0" class="graph" transform="scale(1 1) rotate(0) translate(4 112)">
<polygon fill="white" stroke="none" points="-4,4 -4,-112 141.88,-112 141.88,4 -4,4"/>
<!-- __repo_root__ -->
<g id="node1" class="node">
<title>__repo_root__</title>
<polygon fill="none" stroke="black" points="113.12,-108 110.12,-112 89.12,-112 86.12,-108 19.88,-108 19.88,-72 113.12,-72 113.12,-108"/>
<text xml:space="preserve" text-anchor="middle" x="66.5" y="-84.95" font-family="Times,serif" font-size="14.00">pc&#45;overwatch/</text>
</g>
<!-- scripts -->
<g id="node2" class="node">
<title>scripts</title>
<polygon fill="none" stroke="black" points="55,-36 0,-36 0,0 55,0 55,-36"/>
<text xml:space="preserve" text-anchor="middle" x="27.5" y="-12.95" font-family="Times,serif" font-size="14.00">scripts/</text>
</g>
<!-- __repo_root__&#45;&gt;scripts -->
<g id="edge1" class="edge">
<title>__repo_root__&#45;&gt;scripts</title>
<path fill="none" stroke="black" d="M56.86,-71.7C52.56,-63.98 47.4,-54.71 42.61,-46.11"/>
<polygon fill="black" stroke="black" points="45.69,-44.46 37.77,-37.43 39.58,-47.87 45.69,-44.46"/>
</g>
<!-- systemd -->
<g id="node3" class="node">
<title>systemd</title>
<polygon fill="none" stroke="black" points="137.88,-36 73.12,-36 73.12,0 137.88,0 137.88,-36"/>
<text xml:space="preserve" text-anchor="middle" x="105.5" y="-12.95" font-family="Times,serif" font-size="14.00">systemd/</text>
</g>
<!-- __repo_root__&#45;&gt;systemd -->
<g id="edge2" class="edge">
<title>__repo_root__&#45;&gt;systemd</title>
<path fill="none" stroke="black" d="M76.14,-71.7C80.44,-63.98 85.6,-54.71 90.39,-46.11"/>
<polygon fill="black" stroke="black" points="93.42,-47.87 95.23,-37.43 87.31,-44.46 93.42,-47.87"/>
</g>
</g>
</svg>
