<?xml version="1.0" encoding="UTF-8" standalone="no"?>
<!DOCTYPE svg PUBLIC "-//W3C//DTD SVG 1.1//EN"
 "http://www.w3.org/Graphics/SVG/1.1/DTD/svg11.dtd">
<!-- Generated by graphviz version 14.1.4 (20260321.0153)
 -->
<!-- Pages: 1 -->
<svg width="411pt" height="514pt"
 viewBox="0.00 0.00 411.00 514.00" xmlns="http://www.w3.org/2000/svg" xmlns:xlink="http://www.w3.org/1999/xlink">
<g id="graph0" class="graph" transform="scale(1 1) rotate(0) translate(4 510)">
<polygon fill="white" stroke="none" points="-4,4 -4,-510 407.25,-510 407.25,4 -4,4"/>
<!-- __repo_root__ -->
<g id="node1" class="node">
<title>__repo_root__</title>
<polygon fill="none" stroke="black" points="93.25,-388 90.25,-392 69.25,-392 66.25,-388 0,-388 0,-352 93.25,-352 93.25,-388"/>
<text xml:space="preserve" text-anchor="middle" x="46.62" y="-364.95" font-family="Times,serif" font-size="14.00">pc&#45;overwatch/</text>
</g>
<!-- .env.example -->
<g id="node2" class="node">
<title>.env.example</title>
<polygon fill="none" stroke="black" points="233.25,-506 144.5,-506 144.5,-470 233.25,-470 233.25,-506"/>
<text xml:space="preserve" text-anchor="middle" x="188.88" y="-482.95" font-family="Times,serif" font-size="14.00">.env.example</text>
</g>
<!-- __repo_root__&#45;&gt;.env.example -->
<g id="edge1" class="edge">
<title>__repo_root__&#45;&gt;.env.example</title>
<path fill="none" stroke="black" d="M60.91,-388.16C75.63,-407.33 101.02,-437.76 135.2,-463.57"/>
<polygon fill="black" stroke="black" points="132.71,-466.08 142.85,-469.13 136.82,-460.42 132.71,-466.08"/>
</g>
<!-- .gitignore -->
<g id="node3" class="node">
<title>.gitignore</title>
<polygon fill="none" stroke="black" points="223.12,-459 154.62,-459 154.62,-423 223.12,-423 223.12,-459"/>
<text xml:space="preserve" text-anchor="middle" x="188.88" y="-435.95" font-family="Times,serif" font-size="14.00">.gitignore</text>
</g>
<!-- __repo_root__&#45;&gt;.gitignore -->
<g id="edge2" class="edge">
<title>__repo_root__&#45;&gt;.gitignore</title>
<path fill="none" stroke="black" d="M80.14,-388.39C96.76,-397.59 117.41,-408.72 136.25,-418 138.79,-419.25 141.42,-420.51 144.07,-421.77"/>
<polygon fill="black" stroke="black" points="142.45,-424.88 153,-425.89 145.39,-418.52 142.45,-424.88"/>
</g>
<!-- README.md -->
<g id="node4" class="node">
<title>README.md</title>
<polygon fill="none" stroke="black" points="236.62,-412 141.12,-412 141.12,-376 236.62,-376 236.62,-412"/>
<text xml:space="preserve" text-anchor="middle" x="188.88" y="-388.95" font-family="Times,serif" font-size="14.00">README.md</text>
</g>
<!-- __repo_root__&#45;&gt;README.md -->
<g id="edge3" class="edge">
<title>__repo_root__&#45;&gt;README.md</title>
<path fill="none" stroke="black" d="M93.55,-377.86C105.05,-379.83 117.54,-381.96 129.56,-384.02"/>
<polygon fill="black" stroke="black" points="128.95,-387.47 139.4,-385.7 130.13,-380.57 128.95,-387.47"/>
</g>
<!-- requirements.txt -->
<g id="node5" class="node">
<title>requirements.txt</title>
<polygon fill="none" stroke="black" points="241.5,-365 136.25,-365 136.25,-329 241.5,-329 241.5,-365"/>
<text xml:space="preserve" text-anchor="middle" x="188.88" y="-341.95" font-family="Times,serif" font-size="14.00">requirements.txt</text>
</g>
<!-- __repo_root__&#45;&gt;requirements.txt -->
<g id="edge4" class="edge">
<title>__repo_root__&#45;&gt;requirements.txt</title>
<path fill="none" stroke="black" d="M93.55,-362.47C103.52,-360.83 114.24,-359.08 124.75,-357.35"/>
<polygon fill="black" stroke="black" points="125.22,-360.82 134.52,-355.75 124.09,-353.91 125.22,-360.82"/>
</g>
<!-- scripts -->
<g id="node6" class="node">
<title>scripts</title>
<polygon fill="none" stroke="black" points="216.38,-318 161.38,-318 161.38,-282 216.38,-282 216.38,-318"/>
<text xml:space="preserve" text-anchor="middle" x="188.88" y="-294.95" font-family="Times,serif" font-size="14.00">scripts/</text>
</g>
<!-- __repo_root__&#45;&gt;scripts -->
<g id="edge5" class="edge">
<title>__repo_root__&#45;&gt;scripts</title>
<path fill="none" stroke="black" d="M82.38,-351.51C98.66,-342.97 118.36,-332.8 136.25,-324 140.87,-321.73 145.74,-319.39 150.57,-317.11"/>
<polygon fill="black" stroke="black" points="152.03,-320.29 159.6,-312.88 149.06,-313.95 152.03,-320.29"/>
</g>
<!-- systemd -->
<g id="node13" class="node">
<title>systemd</title>
<polygon fill="none" stroke="black" points="221.25,-130 156.5,-130 156.5,-94 221.25,-94 221.25,-130"/>
<text xml:space="preserve" text-anchor="middle" x="188.88" y="-106.95" font-family="Times,serif" font-size="14.00">systemd/</text>
</g>
<!-- __repo_root__&#45;&gt;systemd -->
<g id="edge12" class="edge">
<title>__repo_root__&#45;&gt;systemd</title>
<path fill="none" stroke="black" d="M57.49,-351.86C81.57,-307.56 143.52,-193.59 172.5,-140.28"/>
<polygon fill="black" stroke="black" points="175.41,-142.25 177.11,-131.8 169.26,-138.91 175.41,-142.25"/>
</g>
<!-- scripts/bot_listener.py -->
<g id="node7" class="node">
<title>scripts/bot_listener.py</title>
<polygon fill="none" stroke="black" points="392,-459 295.75,-459 295.75,-423 392,-423 392,-459"/>
<text xml:space="preserve" text-anchor="middle" x="343.88" y="-435.95" font-family="Times,serif" font-size="14.00">bot_listener.py</text>
</g>
<!-- scripts&#45;&gt;scripts/bot_listener.py -->
<g id="edge6" class="edge">
<title>scripts&#45;&gt;scripts/bot_listener.py</title>
<path fill="none" stroke="black" d="M216.79,-308.29C225.51,-312 234.67,-317.13 241.5,-324 273.89,-356.59 251.15,-386.4 284.5,-418 285.01,-418.48 285.52,-418.95 286.05,-419.41"/>
<polygon fill="black" stroke="black" points="283.97,-422.23 294.14,-425.2 288.05,-416.53 283.97,-422.23"/>
</g>
<!-- scripts/config.py -->
<g id="node8" class="node">
<title>scripts/config.py</title>
<polygon fill="none" stroke="black" points="377.75,-412 310,-412 310,-376 377.75,-376 377.75,-412"/>
<text xml:space="preserve" text-anchor="middle" x="343.88" y="-388.95" font-family="Times,serif" font-size="14.00">config.py</text>
</g>
<!-- scripts&#45;&gt;scripts/config.py -->
<g id="edge7" class="edge">
<title>scripts&#45;&gt;scripts/config.py</title>
<path fill="none" stroke="black" d="M216.73,-310.07C225.06,-313.81 234.01,-318.51 241.5,-324 264.34,-340.74 261.17,-354.95 284.5,-371 289.15,-374.2 294.31,-377.04 299.58,-379.55"/>
<polygon fill="black" stroke="black" points="297.79,-382.59 308.35,-383.35 300.57,-376.16 297.79,-382.59"/>
</g>
<!-- scripts/cpu -->
<g id="node9" class="node">
<title>scripts/cpu</title>
<polygon fill="none" stroke="black" points="370.88,-365 316.88,-365 316.88,-329 370.88,-329 370.88,-365"/>
<text xml:space="preserve" text-anchor="middle" x="343.88" y="-341.95" font-family="Times,serif" font-size="14.00">cpu</text>
</g>
<!-- scripts&#45;&gt;scripts/cpu -->
<g id="edge8" class="edge">
<title>scripts&#45;&gt;scripts/cpu</title>
<path fill="none" stroke="black" d="M216.53,-308.19C241.21,-315.77 278.15,-327.12 305.72,-335.59"/>
<polygon fill="black" stroke="black" points="304.5,-338.87 315.08,-338.46 306.55,-332.18 304.5,-338.87"/>
</g>
<!-- scripts/pc_notify.py -->
<g id="node10" class="node">
<title>scripts/pc_notify.py</title>
<polygon fill="none" stroke="black" points="386,-318 301.75,-318 301.75,-282 386,-282 386,-318"/>
<text xml:space="preserve" text-anchor="middle" x="343.88" y="-294.95" font-family="Times,serif" font-size="14.00">pc_notify.py</text>
</g>
<!-- scripts&#45;&gt;scripts/pc_notify.py -->
<g id="edge9" class="edge">
<title>scripts&#45;&gt;scripts/pc_notify.py</title>
<path fill="none" stroke="black" d="M216.53,-300C236.7,-300 265.08,-300 289.82,-300"/>
<polygon fill="black" stroke="black" points="289.75,-303.5 299.75,-300 289.75,-296.5 289.75,-303.5"/>
</g>
<!-- scripts/read_temp -->
<g id="node11" class="node">
<title>scripts/read_temp</title>
<polygon fill="none" stroke="black" points="380.75,-271 307,-271 307,-235 380.75,-235 380.75,-271"/>
<text xml:space="preserve" text-anchor="middle" x="343.88" y="-247.95" font-family="Times,serif" font-size="14.00">read_temp</text>
</g>
<!-- scripts&#45;&gt;scripts/read_temp -->
<g id="edge10" class="edge">
<title>scripts&#45;&gt;scripts/read_temp</title>
<path fill="none" stroke="black" d="M216.53,-291.81C238.33,-285.12 269.69,-275.48 295.72,-267.49"/>
<polygon fill="black" stroke="black" points="296.52,-270.9 305.05,-264.62 294.47,-264.21 296.52,-270.9"/>
</g>
<!-- scripts/send_alert.py -->
<g id="node12" class="node">
<title>scripts/send_alert.py</title>
<polygon fill="none" stroke="black" points="388.25,-224 299.5,-224 299.5,-188 388.25,-188 388.25,-224"/>
<text xml:space="preserve" text-anchor="middle" x="343.88" y="-200.95" font-family="Times,serif" font-size="14.00">send_alert.py</text>
</g>
<!-- scripts&#45;&gt;scripts/send_alert.py -->
<g id="edge11" class="edge">
<title>scripts&#45;&gt;scripts/send_alert.py</title>
<path fill="none" stroke="black" d="M211.38,-281.68C229.9,-266.5 257.8,-245.06 284.5,-230 285.96,-229.18 287.46,-228.36 288.98,-227.57"/>
<polygon fill="black" stroke="black" points="290.47,-230.73 297.91,-223.19 287.39,-224.45 290.47,-230.73"/>
</g>
<!-- systemd/bot&#45;listener.service -->
<g id="node14" class="node">
<title>systemd/bot&#45;listener.service</title>
<polygon fill="none" stroke="black" points="403.25,-177 284.5,-177 284.5,-141 403.25,-141 403.25,-177"/>
<text xml:space="preserve" text-anchor="middle" x="343.88" y="-153.95" font-family="Times,serif" font-size="14.00">bot&#45;listener.service</text>
</g>
<!-- systemd&#45;&gt;systemd/bot&#45;listener.service -->
<g id="edge13" class="edge">
<title>systemd&#45;&gt;systemd/bot&#45;listener.service</title>
<path fill="none" stroke="black" d="M221.58,-121.74C236.58,-126.35 255.13,-132.05 273.17,-137.59"/>
<polygon fill="black" stroke="black" points="271.97,-140.88 282.56,-140.47 274.03,-134.19 271.97,-140.88"/>
</g>
<!-- systemd/cpu&#45;alert.service -->
<g id="node15" class="node">
<title>systemd/cpu&#45;alert.service</title>
<polygon fill="none" stroke="black" points="396.88,-130 290.88,-130 290.88,-94 396.88,-94 396.88,-130"/>
<text xml:space="preserve" text-anchor="middle" x="343.88" y="-106.95" font-family="Times,serif" font-size="14.00">cpu&#45;alert.service</text>
</g>
<!-- systemd&#45;&gt;systemd/cpu&#45;alert.service -->
<g id="edge14" class="edge">
<title>systemd&#45;&gt;systemd/cpu&#45;alert.service</title>
<path fill="none" stroke="black" d="M221.58,-112C238.19,-112 259.15,-112 278.95,-112"/>
<polygon fill="black" stroke="black" points="278.92,-115.5 288.92,-112 278.92,-108.5 278.92,-115.5"/>
</g>
<!-- systemd/cpu&#45;alert.timer -->
<g id="node16" class="node">
<title>systemd/cpu&#45;alert.timer</title>
<polygon fill="none" stroke="black" points="392.38,-83 295.38,-83 295.38,-47 392.38,-47 392.38,-83"/>
<text xml:space="preserve" text-anchor="middle" x="343.88" y="-59.95" font-family="Times,serif" font-size="14.00">cpu&#45;alert.timer</text>
</g>
<!-- systemd&#45;&gt;systemd/cpu&#45;alert.timer -->
<g id="edge15" class="edge">
<title>systemd&#45;&gt;systemd/cpu&#45;alert.timer</title>
<path fill="none" stroke="black" d="M221.58,-102.26C239.61,-96.72 262.78,-89.6 284.03,-83.08"/>
<polygon fill="black" stroke="black" points="284.95,-86.46 293.48,-80.17 282.89,-79.76 284.95,-86.46"/>
</g>
<!-- systemd/pc&#45;notify.service -->
<g id="node17" class="node">
<title>systemd/pc&#45;notify.service</title>
<polygon fill="none" stroke="black" points="397.25,-36 290.5,-36 290.5,0 397.25,0 397.25,-36"/>
<text xml:space="preserve" text-anchor="middle" x="343.88" y="-12.95" font-family="Times,serif" font-size="14.00">pc&#45;notify.service</text>
</g>
<!-- systemd&#45;&gt;systemd/pc&#45;notify.service -->
<g id="edge16" class="edge">
<title>systemd&#45;&gt;systemd/pc&#45;notify.service</title>
<path fill="none" stroke="black" d="M211.38,-93.68C229.9,-78.5 257.8,-57.06 284.5,-42 284.71,-41.88 284.93,-41.76 285.15,-41.64"/>
<polygon fill="black" stroke="black" points="286.63,-44.81 293.91,-37.11 283.42,-38.59 286.63,-44.81"/>
</g>
</g>
</svg>
